TITLE "128.900, flac"
FILE "128.900.flac" WAVE

TRACK 01 AUDIO
TITLE "2020.02.06-06:00.26:279007"
INDEX 01 01:25:70

TRACK 02 AUDIO
TITLE "2020.02.06-06:01.36:881866"
INDEX 00 01:27:31
INDEX 01 02:36:41

TRACK 03 AUDIO
TITLE "2020.02.06-06:02.26:179078"
INDEX 00 02:47:54
INDEX 01 03:25:63

TRACK 04 AUDIO
TITLE "2020.02.06-06:02.34:863167"
INDEX 00 03:32:57
INDEX 01 03:34:39

TRACK 05 AUDIO
TITLE "2020.02.06-06:02.41:081339"
INDEX 00 03:40:36
INDEX 01 03:40:56

TRACK 06 AUDIO
TITLE "2020.02.06-06:03.04:719011"
INDEX 00 03:50:30
INDEX 01 04:04:28

TRACK 07 AUDIO
TITLE "2020.02.06-06:03.56:679057"
INDEX 00 04:42:63
INDEX 01 04:56:25

TRACK 08 AUDIO
TITLE "2020.02.06-06:04.07:859106"
INDEX 00 05:01:58
INDEX 01 05:07:39

TRACK 09 AUDIO
TITLE "2020.02.06-06:04.22:360324"
INDEX 00 05:17:69
INDEX 01 05:22:01

TRACK 10 AUDIO
TITLE "2020.02.06-06:04.36:801533"
INDEX 00 05:30:09
INDEX 01 05:36:35

TRACK 11 AUDIO
TITLE "2020.02.06-06:05.10:120033"
INDEX 00 05:46:11
INDEX 01 06:09:58

TRACK 12 AUDIO
TITLE "2020.02.06-06:06.24:839142"
INDEX 00 06:30:43
INDEX 01 07:24:37

TRACK 13 AUDIO
TITLE "2020.02.06-06:07.34:819150"
INDEX 00 08:07:13
INDEX 01 08:34:36

TRACK 14 AUDIO
TITLE "2020.02.06-06:07.53:722969"
INDEX 00 08:50:63
INDEX 01 08:53:29

TRACK 15 AUDIO
TITLE "2020.02.06-06:08.15:319343"
INDEX 00 09:13:71
INDEX 01 09:14:73

TRACK 16 AUDIO
TITLE "2020.02.06-06:08.24:319193"
INDEX 00 09:23:00
INDEX 01 09:23:73

TRACK 17 AUDIO
TITLE "2020.02.06-06:08.36:361102"
INDEX 00 09:34:58
INDEX 01 09:36:02

TRACK 18 AUDIO
TITLE "2020.02.06-06:08.47:279303"
INDEX 00 09:44:21
INDEX 01 09:46:70

TRACK 19 AUDIO
TITLE "2020.02.06-06:09.04:540595"
INDEX 00 10:01:40
INDEX 01 10:04:15

TRACK 20 AUDIO
TITLE "2020.02.06-06:09.15:039125"
INDEX 00 10:14:21
INDEX 01 10:14:52

TRACK 21 AUDIO
TITLE "2020.02.06-06:09.19:539115"
INDEX 00 10:18:03
INDEX 01 10:19:15

TRACK 22 AUDIO
TITLE "2020.02.06-06:09.30:458998"
INDEX 00 10:27:69
INDEX 01 10:30:09

TRACK 23 AUDIO
TITLE "2020.02.06-06:09.53:724005"
INDEX 00 10:38:31
INDEX 01 10:53:29

TRACK 24 AUDIO
TITLE "2020.02.06-06:10.11:960431"
INDEX 00 11:09:47
INDEX 01 11:11:46

TRACK 25 AUDIO
TITLE "2020.02.06-06:10.45:959100"
INDEX 00 11:23:63
INDEX 01 11:45:46

TRACK 26 AUDIO
TITLE "2020.02.06-06:10.55:558946"
INDEX 00 11:54:39
INDEX 01 11:55:16

TRACK 27 AUDIO
TITLE "2020.02.06-06:11.03:599245"
INDEX 00 12:03:10
INDEX 01 12:03:19

TRACK 28 AUDIO
TITLE "2020.02.06-06:11.11:159040"
INDEX 00 12:08:36
INDEX 01 12:10:61

TRACK 29 AUDIO
TITLE "2020.02.06-06:11.18:379018"
INDEX 00 12:17:39
INDEX 01 12:18:03

TRACK 30 AUDIO
TITLE "2020.02.06-06:11.21:999213"
INDEX 00 12:20:73
INDEX 01 12:21:49

TRACK 31 AUDIO
TITLE "2020.02.06-06:11.45:979912"
INDEX 00 12:35:54
INDEX 01 12:45:48

TRACK 32 AUDIO
TITLE "2020.02.06-06:12.01:262943"
INDEX 00 12:52:58
INDEX 01 13:00:69

TRACK 33 AUDIO
TITLE "2020.02.06-06:12.09:059166"
INDEX 00 13:08:50
INDEX 01 13:08:54

TRACK 34 AUDIO
TITLE "2020.02.06-06:12.15:843825"
INDEX 00 13:15:30
INDEX 01 13:15:38

TRACK 35 AUDIO
TITLE "2020.02.06-06:12.38:299184"
INDEX 00 13:22:06
INDEX 01 13:37:72

TRACK 36 AUDIO
TITLE "2020.02.06-06:13.23:581279"
INDEX 00 13:54:10
INDEX 01 14:23:18

TRACK 37 AUDIO
TITLE "2020.02.06-06:14.02:319114"
INDEX 00 14:30:30
INDEX 01 15:01:73

TRACK 38 AUDIO
TITLE "2020.02.06-06:14.19:339145"
INDEX 00 15:17:28
INDEX 01 15:19:00

TRACK 39 AUDIO
TITLE "2020.02.06-06:15.14:079066"
INDEX 00 15:31:40
INDEX 01 16:13:55

TRACK 40 AUDIO
TITLE "2020.02.06-06:16.16:739417"
INDEX 00 16:29:06
INDEX 01 17:16:30

TRACK 41 AUDIO
TITLE "2020.02.06-06:16.27:118995"
INDEX 00 17:23:67
INDEX 01 17:26:58

TRACK 42 AUDIO
TITLE "2020.02.06-06:17.26:383875"
INDEX 00 17:39:42
INDEX 01 18:26:03

TRACK 43 AUDIO
TITLE "2020.02.06-06:17.34:519093"
INDEX 00 18:32:53
INDEX 01 18:34:13

TRACK 44 AUDIO
TITLE "2020.02.06-06:18.35:299131"
INDEX 00 18:54:01
INDEX 01 19:34:72

TRACK 45 AUDIO
TITLE "2020.02.06-06:18.44:919165"
INDEX 00 19:43:18
INDEX 01 19:44:43

TRACK 46 AUDIO
TITLE "2020.02.06-06:18.53:963493"
INDEX 00 19:52:12
INDEX 01 19:53:47

TRACK 47 AUDIO
TITLE "2020.02.06-06:19.20:558986"
INDEX 00 20:16:38
INDEX 01 20:20:16

TRACK 48 AUDIO
TITLE "2020.02.06-06:19.54:622211"
INDEX 00 20:32:04
INDEX 01 20:54:21

TRACK 49 AUDIO
TITLE "2020.02.06-06:20.00:458964"
INDEX 00 20:59:47
INDEX 01 21:00:09

TRACK 50 AUDIO
TITLE "2020.02.06-06:20.04:979493"
INDEX 00 21:04:04
INDEX 01 21:04:48

TRACK 51 AUDIO
TITLE "2020.02.06-06:20.12:079180"
INDEX 00 21:10:58
INDEX 01 21:11:55

TRACK 52 AUDIO
TITLE "2020.02.06-06:20.18:259325"
INDEX 00 21:15:63
INDEX 01 21:17:69

TRACK 53 AUDIO
TITLE "2020.02.06-06:20.24:219012"
INDEX 00 21:23:46
INDEX 01 21:23:66

TRACK 54 AUDIO
TITLE "2020.02.06-06:20.28:399019"
INDEX 00 21:27:67
INDEX 01 21:28:04

TRACK 55 AUDIO
TITLE "2020.02.06-06:20.51:439179"
INDEX 00 21:37:19
INDEX 01 21:51:07

TRACK 56 AUDIO
TITLE "2020.02.06-06:21.25:418934"
INDEX 00 21:59:70
INDEX 01 22:25:06

TRACK 57 AUDIO
TITLE "2020.02.06-06:21.31:982374"
INDEX 00 22:30:07
INDEX 01 22:31:48

TRACK 58 AUDIO
TITLE "2020.02.06-06:21.43:180123"
INDEX 00 22:42:26
INDEX 01 22:42:63

TRACK 59 AUDIO
TITLE "2020.02.06-06:21.46:698945"
INDEX 00 22:45:18
INDEX 01 22:46:27

TRACK 60 AUDIO
TITLE "2020.02.06-06:21.55:338929"
INDEX 00 22:51:13
INDEX 01 22:55:00

TRACK 61 AUDIO
TITLE "2020.02.06-06:22.29:079072"
INDEX 00 23:18:52
INDEX 01 23:28:55

TRACK 62 AUDIO
TITLE "2020.02.06-06:22.33:739086"
INDEX 00 23:31:61
INDEX 01 23:33:30

TRACK 63 AUDIO
TITLE "2020.02.06-06:22.43:299187"
INDEX 00 23:36:72
INDEX 01 23:42:72

TRACK 64 AUDIO
TITLE "2020.02.06-06:24.08:379699"
INDEX 00 23:57:06
INDEX 01 25:08:03

TRACK 65 AUDIO
TITLE "2020.02.06-06:24.16:441757"
INDEX 00 25:13:48
INDEX 01 25:16:08

TRACK 66 AUDIO
TITLE "2020.02.06-06:24.21:879054"
INDEX 00 25:21:24
INDEX 01 25:21:40

TRACK 67 AUDIO
TITLE "2020.02.06-06:25.33:439032"
INDEX 00 25:45:52
INDEX 01 26:33:07

TRACK 68 AUDIO
TITLE "2020.02.06-06:25.40:239184"
INDEX 00 26:39:40
INDEX 01 26:39:67

TRACK 69 AUDIO
TITLE "2020.02.06-06:26.08:079041"
INDEX 00 26:54:58
INDEX 01 27:07:55

TRACK 70 AUDIO
TITLE "2020.02.06-06:27.30:080724"
INDEX 00 27:28:16
INDEX 01 28:29:56

TRACK 71 AUDIO
TITLE "2020.02.06-06:27.43:419035"
INDEX 00 28:42:23
INDEX 01 28:43:06

TRACK 72 AUDIO
TITLE "2020.02.06-06:28.47:401464"
INDEX 00 29:15:10
INDEX 01 29:47:05

TRACK 73 AUDIO
TITLE "2020.02.06-06:29.12:179006"
INDEX 00 29:59:17
INDEX 01 30:11:63

TRACK 74 AUDIO
TITLE "2020.02.06-06:29.40:261128"
INDEX 00 30:20:15
INDEX 01 30:39:69

TRACK 75 AUDIO
TITLE "2020.02.06-06:29.52:739241"
INDEX 00 30:49:50
INDEX 01 30:52:30

TRACK 76 AUDIO
TITLE "2020.02.06-06:30.14:079177"
INDEX 00 31:06:42
INDEX 01 31:13:55

TRACK 77 AUDIO
TITLE "2020.02.06-06:31.05:978927"
INDEX 00 31:19:10
INDEX 01 32:05:48

TRACK 78 AUDIO
TITLE "2020.02.06-06:31.13:503536"
INDEX 00 32:11:30
INDEX 01 32:13:12

TRACK 79 AUDIO
TITLE "2020.02.06-06:31.26:478985"
INDEX 00 32:26:03
INDEX 01 32:26:10

TRACK 80 AUDIO
TITLE "2020.02.06-06:31.44:019096"
INDEX 00 32:43:22
INDEX 01 32:43:51

TRACK 81 AUDIO
TITLE "2020.02.06-06:32.09:119086"
INDEX 00 33:05:00
INDEX 01 33:08:58

TRACK 82 AUDIO
TITLE "2020.02.06-06:33.11:619090"
INDEX 00 33:26:66
INDEX 01 34:11:21

TRACK 83 AUDIO
TITLE "2020.02.06-06:33.30:219169"
INDEX 00 34:29:15
INDEX 01 34:29:66

TRACK 84 AUDIO
TITLE "2020.02.06-06:33.39:059100"
INDEX 00 34:36:69
INDEX 01 34:38:54

TRACK 85 AUDIO
TITLE "2020.02.06-06:33.57:139085"
INDEX 00 34:54:70
INDEX 01 34:56:60

TRACK 86 AUDIO
TITLE "2020.02.06-06:34.24:999025"
INDEX 00 35:03:28
INDEX 01 35:24:49

TRACK 87 AUDIO
TITLE "2020.02.06-06:34.39:519043"
INDEX 00 35:38:21
INDEX 01 35:39:13

TRACK 88 AUDIO
TITLE "2020.02.06-06:34.44:603605"
INDEX 00 35:42:48
INDEX 01 35:44:20

TRACK 89 AUDIO
TITLE "2020.02.06-06:35.00:199313"
INDEX 00 35:56:62
INDEX 01 35:59:64

TRACK 90 AUDIO
TITLE "2020.02.06-06:35.09:958964"
INDEX 00 36:06:31
INDEX 01 36:09:46

TRACK 91 AUDIO
TITLE "2020.02.06-06:35.26:579328"
INDEX 00 36:19:69
INDEX 01 36:26:18

TRACK 92 AUDIO
TITLE "2020.02.06-06:35.41:179081"
INDEX 00 36:34:66
INDEX 01 36:40:63

TRACK 93 AUDIO
TITLE "2020.02.06-06:35.51:719104"
INDEX 00 36:48:01
INDEX 01 36:51:28

TRACK 94 AUDIO
TITLE "2020.02.06-06:36.00:259050"
INDEX 00 36:59:01
INDEX 01 36:59:69

TRACK 95 AUDIO
TITLE "2020.02.06-06:36.14:518964"
INDEX 00 37:13:73
INDEX 01 37:14:13

TRACK 96 AUDIO
TITLE "2020.02.06-06:36.22:302863"
INDEX 00 37:20:06
INDEX 01 37:21:72

TRACK 97 AUDIO
TITLE "2020.02.06-06:36.51:178973"
INDEX 00 37:49:71
INDEX 01 37:50:63

TRACK 98 AUDIO
TITLE "2020.02.06-06:36.57:258990"
INDEX 00 37:55:64
INDEX 01 37:56:69

TRACK 99 AUDIO
TITLE "2020.02.06-06:37.03:499343"
INDEX 00 37:59:46
INDEX 01 38:03:12

TRACK 100 AUDIO
TITLE "2020.02.06-06:37.13:859288"
INDEX 00 38:11:13
INDEX 01 38:13:39

TRACK 101 AUDIO
TITLE "2020.02.06-06:37.34:738953"
INDEX 00 38:29:21
INDEX 01 38:34:30

TRACK 102 AUDIO
TITLE "2020.02.06-06:37.48:779319"
INDEX 00 38:41:13
INDEX 01 38:48:33

TRACK 103 AUDIO
TITLE "2020.02.06-06:38.11:839055"
INDEX 00 39:04:54
INDEX 01 39:11:37

TRACK 104 AUDIO
TITLE "2020.02.06-06:38.32:299154"
INDEX 00 39:31:22
INDEX 01 39:31:72

TRACK 105 AUDIO
TITLE "2020.02.06-06:38.59:658983"
INDEX 00 39:52:46
INDEX 01 39:59:24

TRACK 106 AUDIO
TITLE "2020.02.06-06:39.06:478997"
INDEX 00 40:05:27
INDEX 01 40:06:10

TRACK 107 AUDIO
TITLE "2020.02.06-06:39.17:339083"
INDEX 00 40:15:15
INDEX 01 40:17:00

TRACK 108 AUDIO
TITLE "2020.02.06-06:39.29:779074"
INDEX 00 40:26:19
INDEX 01 40:29:33

TRACK 109 AUDIO
TITLE "2020.02.06-06:39.57:261309"
INDEX 00 40:45:00
INDEX 01 40:56:69

TRACK 110 AUDIO
TITLE "2020.02.06-06:40.11:599176"
INDEX 00 41:06:54
INDEX 01 41:11:19

TRACK 111 AUDIO
TITLE "2020.02.06-06:40.39:219159"
INDEX 00 41:18:48
INDEX 01 41:38:66

TRACK 112 AUDIO
TITLE "2020.02.06-06:41.10:538984"
INDEX 00 41:55:09
INDEX 01 42:10:15

TRACK 113 AUDIO
TITLE "2020.02.06-06:41.19:939792"
INDEX 00 42:16:13
INDEX 01 42:19:45

TRACK 114 AUDIO
TITLE "2020.02.06-06:41.35:578950"
INDEX 00 42:30:07
INDEX 01 42:35:18

TRACK 115 AUDIO
TITLE "2020.02.06-06:42.02:299090"
INDEX 00 42:40:67
INDEX 01 43:01:72

TRACK 116 AUDIO
TITLE "2020.02.06-06:42.08:079129"
INDEX 00 43:03:34
INDEX 01 43:07:55

TRACK 117 AUDIO
TITLE "2020.02.06-06:42.21:119305"
INDEX 00 43:20:39
INDEX 01 43:20:58

TRACK 118 AUDIO
TITLE "2020.02.06-06:42.58:480023"
INDEX 00 43:26:73
INDEX 01 43:58:10

TRACK 119 AUDIO
TITLE "2020.02.06-06:43.10:199258"
INDEX 00 44:09:49
INDEX 01 44:09:64

TRACK 120 AUDIO
TITLE "2020.02.06-06:43.46:399240"
INDEX 00 44:22:25
INDEX 01 44:46:04

TRACK 121 AUDIO
TITLE "2020.02.06-06:44.00:478953"
INDEX 00 44:52:61
INDEX 01 45:00:10

TRACK 122 AUDIO
TITLE "2020.02.06-06:44.13:479078"
INDEX 00 45:06:27
INDEX 01 45:13:10

TRACK 123 AUDIO
TITLE "2020.02.06-06:44.27:159060"
INDEX 00 45:23:07
INDEX 01 45:26:61

TRACK 124 AUDIO
TITLE "2020.02.06-06:45.11:380331"
INDEX 00 45:54:33
INDEX 01 46:11:03

TRACK 125 AUDIO
TITLE "2020.02.06-06:45.25:139080"
INDEX 00 46:23:21
INDEX 01 46:24:60

TRACK 126 AUDIO
TITLE "2020.02.06-06:45.40:138967"
INDEX 00 46:34:64
INDEX 01 46:39:60

TRACK 127 AUDIO
TITLE "2020.02.06-06:45.47:141237"
INDEX 00 46:46:48
INDEX 01 46:46:60

TRACK 128 AUDIO
TITLE "2020.02.06-06:46.04:840794"
INDEX 00 46:57:24
INDEX 01 47:04:38

TRACK 129 AUDIO
TITLE "2020.02.06-06:46.21:098932"
INDEX 00 47:17:41
INDEX 01 47:20:57

TRACK 130 AUDIO
TITLE "2020.02.06-06:46.28:759084"
INDEX 00 47:26:40
INDEX 01 47:28:31

TRACK 131 AUDIO
TITLE "2020.02.06-06:46.44:923724"
INDEX 00 47:41:46
INDEX 01 47:44:44

TRACK 132 AUDIO
TITLE "2020.02.06-06:47.21:361945"
INDEX 00 47:56:12
INDEX 01 48:21:02

TRACK 133 AUDIO
TITLE "2020.02.06-06:47.41:759024"
INDEX 00 48:33:09
INDEX 01 48:41:31

TRACK 134 AUDIO
TITLE "2020.02.06-06:47.57:159124"
INDEX 00 48:48:28
INDEX 01 48:56:61

TRACK 135 AUDIO
TITLE "2020.02.06-06:48.00:358993"
INDEX 00 48:59:66
INDEX 01 49:00:01

TRACK 136 AUDIO
TITLE "2020.02.06-06:48.32:299081"
INDEX 00 49:12:19
INDEX 01 49:31:72

TRACK 137 AUDIO
TITLE "2020.02.06-06:49.13:499072"
INDEX 00 49:49:12
INDEX 01 50:13:12

TRACK 138 AUDIO
TITLE "2020.02.06-06:49.19:044708"
INDEX 00 50:17:63
INDEX 01 50:18:53

TRACK 139 AUDIO
TITLE "2020.02.06-06:49.56:159193"
INDEX 00 50:27:08
INDEX 01 50:55:61

TRACK 140 AUDIO
TITLE "2020.02.06-06:50.11:478926"
INDEX 00 51:10:46
INDEX 01 51:11:10

TRACK 141 AUDIO
TITLE "2020.02.06-06:50.23:999028"
INDEX 00 51:18:55
INDEX 01 51:23:49

TRACK 142 AUDIO
TITLE "2020.02.06-06:50.33:959121"
INDEX 00 51:32:04
INDEX 01 51:33:46

TRACK 143 AUDIO
TITLE "2020.02.06-06:51.15:879338"
INDEX 00 51:48:09
INDEX 01 52:15:40

TRACK 144 AUDIO
TITLE "2020.02.06-06:52.07:859106"
INDEX 00 52:30:46
INDEX 01 53:07:39

TRACK 145 AUDIO
TITLE "2020.02.06-06:52.16:939053"
INDEX 00 53:14:64
INDEX 01 53:16:45

TRACK 146 AUDIO
TITLE "2020.02.06-06:52.31:322536"
INDEX 00 53:28:37
INDEX 01 53:30:74

TRACK 147 AUDIO
TITLE "2020.02.06-06:54.00:941200"
INDEX 00 53:42:20
INDEX 01 55:00:45

TRACK 148 AUDIO
TITLE "2020.02.06-06:54.10:139114"
INDEX 00 55:07:57
INDEX 01 55:09:60

TRACK 149 AUDIO
TITLE "2020.02.06-06:54.40:059109"
INDEX 00 55:18:13
INDEX 01 55:39:54

TRACK 150 AUDIO
TITLE "2020.02.06-06:54.51:664143"
INDEX 00 55:48:12
INDEX 01 55:51:24

TRACK 151 AUDIO
TITLE "2020.02.06-06:54.58:219086"
INDEX 00 55:57:32
INDEX 01 55:57:66

TRACK 152 AUDIO
TITLE "2020.02.06-06:55.32:119521"
INDEX 00 56:06:43
INDEX 01 56:31:58

TRACK 153 AUDIO
TITLE "2020.02.06-06:56.07:299044"
INDEX 00 56:49:37
INDEX 01 57:06:72

TRACK 154 AUDIO
TITLE "2020.02.06-06:56.58:179554"
INDEX 00 57:13:73
INDEX 01 57:57:63

TRACK 155 AUDIO
TITLE "2020.02.06-06:57.36:559862"
INDEX 00 58:04:48
INDEX 01 58:36:16

TRACK 156 AUDIO
TITLE "2020.02.06-06:58.16:639020"
INDEX 00 58:50:43
INDEX 01 59:16:22

TRACK 157 AUDIO
TITLE "2020.02.06-06:58.24:779984"
INDEX 00 59:22:12
INDEX 01 59:24:33

TRACK 158 AUDIO
TITLE "2020.02.06-06:59.07:998991"
INDEX 00 59:32:58
INDEX 01 60:07:49

TRACK 159 AUDIO
TITLE "2020.02.06-06:59.12:799026"
INDEX 00 60:11:39
INDEX 01 60:12:34

TRACK 160 AUDIO
TITLE "2020.02.06-06:59.41:779589"
INDEX 00 60:15:64
INDEX 01 60:41:33

TRACK 161 AUDIO
TITLE "2020.02.06-07:00.03:639049"
INDEX 00 60:58:48
INDEX 01 61:03:22

TRACK 162 AUDIO
TITLE "2020.02.06-07:01.20:183287"
INDEX 00 61:11:15
INDEX 01 62:19:63

TRACK 163 AUDIO
TITLE "2020.02.06-07:01.32:300820"
INDEX 00 62:27:02
INDEX 01 62:31:72

